<svg width="64" height="64" viewBox="0 0 64 64" fill="none" xmlns="http://www.w3.org/2000/svg">
<path d="M48 0C56.8366 0 64 7.16344 64 16V48C64 56.8366 56.8366 64 48 64H16C7.16344 64 0 56.8366 0 48V16C0 7.16344 7.16344 0 16 0H48Z" fill="white" fill-opacity="0.2"/>
<path d="M48 0C56.8366 0 64 7.16344 64 16V48C64 56.8366 56.8366 64 48 64H16C7.16344 64 0 56.8366 0 48V16C0 7.16344 7.16344 0 16 0H48Z" stroke="#E5E7EB"/>
<path d="M44 48H20V16H44V48Z" stroke="#E5E7EB"/>
<g clip-path="url(#clip0_1_249)">
<path d="M28.9297 22.225L30.5609 25H30.5H27.125C26.0891 25 25.25 24.1609 25.25 23.125C25.25 22.0891 26.0891 21.25 27.125 21.25H27.2281C27.9266 21.25 28.5781 21.6203 28.9297 22.225ZM23 23.125C23 23.8 23.1641 24.4375 23.45 25H21.5C20.6703 25 20 25.6703 20 26.5V29.5C20 30.3297 20.6703 31 21.5 31H42.5C43.3297 31 44 30.3297 44 29.5V26.5C44 25.6703 43.3297 25 42.5 25H40.55C40.8359 24.4375 41 23.8 41 23.125C41 20.8469 39.1531 19 36.875 19H36.7719C35.2766 19 33.8891 19.7922 33.1297 21.0813L32 23.0078L30.8703 21.0859C30.1109 19.7922 28.7234 19 27.2281 19H27.125C24.8469 19 23 20.8469 23 23.125ZM38.75 23.125C38.75 24.1609 37.9109 25 36.875 25H33.5H33.4391L35.0703 22.225C35.4266 21.6203 36.0734 21.25 36.7719 21.25H36.875C37.9109 21.25 38.75 22.0891 38.75 23.125ZM21.5 32.5V40.75C21.5 41.9922 22.5078 43 23.75 43H30.5V32.5H21.5ZM33.5 43H40.25C41.4922 43 42.5 41.9922 42.5 40.75V32.5H33.5V43Z" fill="white"/>
</g>
<defs>
<clipPath id="clip0_1_249">
<path d="M20 19H44V43H20V19Z" fill="white"/>
</clipPath>
</defs>
</svg>
