<svg width="139" height="24" viewBox="0 0 139 24" fill="none" xmlns="http://www.w3.org/2000/svg">
<path d="M138.625 24H0V0H138.625V24Z" stroke="#E5E7EB"/>
<path d="M18 24H0V0H18V24Z" stroke="#E5E7EB"/>
<g clip-path="url(#clip0_1_718)">
<path d="M9.90312 4.5625C9.7375 4.21875 9.3875 4 9.00313 4C8.61875 4 8.27187 4.21875 8.10312 4.5625L6.09375 8.69688L1.60625 9.35938C1.23125 9.41563 0.91875 9.67812 0.803125 10.0375C0.6875 10.3969 0.78125 10.7937 1.05 11.0594L4.30625 14.2812L3.5375 18.8344C3.475 19.2094 3.63125 19.5906 3.94062 19.8125C4.25 20.0344 4.65937 20.0625 4.99687 19.8844L9.00625 17.7437L13.0156 19.8844C13.3531 20.0625 13.7625 20.0375 14.0719 19.8125C14.3812 19.5875 14.5375 19.2094 14.475 18.8344L13.7031 14.2812L16.9594 11.0594C17.2281 10.7937 17.325 10.3969 17.2062 10.0375C17.0875 9.67812 16.7781 9.41563 16.4031 9.35938L11.9125 8.69688L9.90312 4.5625Z" fill="#FACC15"/>
</g>
<path d="M36 24H18V0H36V24Z" stroke="#E5E7EB"/>
<g clip-path="url(#clip1_1_718)">
<path d="M27.9031 4.5625C27.7375 4.21875 27.3875 4 27.0031 4C26.6188 4 26.2719 4.21875 26.1031 4.5625L24.0938 8.69688L19.6063 9.35938C19.2313 9.41563 18.9188 9.67812 18.8031 10.0375C18.6875 10.3969 18.7812 10.7937 19.05 11.0594L22.3063 14.2812L21.5375 18.8344C21.475 19.2094 21.6312 19.5906 21.9406 19.8125C22.25 20.0344 22.6594 20.0625 22.9969 19.8844L27.0063 17.7437L31.0156 19.8844C31.3531 20.0625 31.7625 20.0375 32.0719 19.8125C32.3812 19.5875 32.5375 19.2094 32.475 18.8344L31.7031 14.2812L34.9594 11.0594C35.2281 10.7937 35.325 10.3969 35.2062 10.0375C35.0875 9.67812 34.7781 9.41563 34.4031 9.35938L29.9125 8.69688L27.9031 4.5625Z" fill="#FACC15"/>
</g>
<path d="M54 24H36V0H54V24Z" stroke="#E5E7EB"/>
<g clip-path="url(#clip2_1_718)">
<path d="M45.9031 4.5625C45.7375 4.21875 45.3875 4 45.0031 4C44.6188 4 44.2719 4.21875 44.1031 4.5625L42.0938 8.69688L37.6063 9.35938C37.2313 9.41563 36.9188 9.67812 36.8031 10.0375C36.6875 10.3969 36.7812 10.7937 37.05 11.0594L40.3063 14.2812L39.5375 18.8344C39.475 19.2094 39.6312 19.5906 39.9406 19.8125C40.25 20.0344 40.6594 20.0625 40.9969 19.8844L45.0063 17.7437L49.0156 19.8844C49.3531 20.0625 49.7625 20.0375 50.0719 19.8125C50.3812 19.5875 50.5375 19.2094 50.475 18.8344L49.7031 14.2812L52.9594 11.0594C53.2281 10.7937 53.325 10.3969 53.2062 10.0375C53.0875 9.67812 52.7781 9.41563 52.4031 9.35938L47.9125 8.69688L45.9031 4.5625Z" fill="#FACC15"/>
</g>
<path d="M72 24H54V0H72V24Z" stroke="#E5E7EB"/>
<g clip-path="url(#clip3_1_718)">
<path d="M63.9031 4.5625C63.7375 4.21875 63.3875 4 63.0031 4C62.6188 4 62.2719 4.21875 62.1031 4.5625L60.0938 8.69688L55.6063 9.35938C55.2313 9.41563 54.9188 9.67812 54.8031 10.0375C54.6875 10.3969 54.7812 10.7937 55.05 11.0594L58.3063 14.2812L57.5375 18.8344C57.475 19.2094 57.6312 19.5906 57.9406 19.8125C58.25 20.0344 58.6594 20.0625 58.9969 19.8844L63.0063 17.7437L67.0156 19.8844C67.3531 20.0625 67.7625 20.0375 68.0719 19.8125C68.3812 19.5875 68.5375 19.2094 68.475 18.8344L67.7031 14.2812L70.9594 11.0594C71.2281 10.7937 71.325 10.3969 71.2062 10.0375C71.0875 9.67812 70.7781 9.41563 70.4031 9.35938L65.9125 8.69688L63.9031 4.5625Z" fill="#FACC15"/>
</g>
<path d="M90 24H72V0H90V24Z" stroke="#E5E7EB"/>
<g clip-path="url(#clip4_1_718)">
<path d="M81.9031 4.5625C81.7375 4.21875 81.3875 4 81.0031 4C80.6188 4 80.2719 4.21875 80.1031 4.5625L78.0938 8.69688L73.6063 9.35938C73.2313 9.41563 72.9188 9.67812 72.8031 10.0375C72.6875 10.3969 72.7812 10.7937 73.05 11.0594L76.3063 14.2812L75.5375 18.8344C75.475 19.2094 75.6312 19.5906 75.9406 19.8125C76.25 20.0344 76.6594 20.0625 76.9969 19.8844L81.0063 17.7437L85.0156 19.8844C85.3531 20.0625 85.7625 20.0375 86.0719 19.8125C86.3812 19.5875 86.5375 19.2094 86.475 18.8344L85.7031 14.2812L88.9594 11.0594C89.2281 10.7937 89.325 10.3969 89.2062 10.0375C89.0875 9.67812 88.7781 9.41563 88.4031 9.35938L83.9125 8.69688L81.9031 4.5625Z" fill="#FACC15"/>
</g>
<defs>
<clipPath id="clip0_1_718">
<path d="M0 4H18V20H0V4Z" fill="white"/>
</clipPath>
<clipPath id="clip1_1_718">
<path d="M18 4H36V20H18V4Z" fill="white"/>
</clipPath>
<clipPath id="clip2_1_718">
<path d="M36 4H54V20H36V4Z" fill="white"/>
</clipPath>
<clipPath id="clip3_1_718">
<path d="M54 4H72V20H54V4Z" fill="white"/>
</clipPath>
<clipPath id="clip4_1_718">
<path d="M72 4H90V20H72V4Z" fill="white"/>
</clipPath>
</defs>
</svg>
