<svg width="64" height="64" viewBox="0 0 64 64" fill="none" xmlns="http://www.w3.org/2000/svg">
<path d="M48 0C56.8366 0 64 7.16344 64 16V48C64 56.8366 56.8366 64 48 64H16C7.16344 64 0 56.8366 0 48V16C0 7.16344 7.16344 0 16 0H48Z" fill="#F43F5E"/>
<path d="M48 0C56.8366 0 64 7.16344 64 16V48C64 56.8366 56.8366 64 48 64H16C7.16344 64 0 56.8366 0 48V16C0 7.16344 7.16344 0 16 0H48Z" stroke="#E5E7EB"/>
<path d="M44 48H20V16H44V48Z" stroke="#E5E7EB"/>
<path d="M44 43H20V19H44V43Z" stroke="#E5E7EB"/>
<path d="M24.9266 28.4968C25.2875 27.475 25.8734 26.514 26.6984 25.6937C29.6281 22.764 34.3766 22.764 37.3063 25.6937L38.1078 26.5H35.75C34.9203 26.5 34.25 27.1703 34.25 28C34.25 28.8296 34.9203 29.5 35.75 29.5H41.7266H41.7453C42.575 29.5 43.2453 28.8296 43.2453 28V22C43.2453 21.1703 42.575 20.5 41.7453 20.5C40.9156 20.5 40.2453 21.1703 40.2453 22V24.4L39.425 23.575C35.3234 19.4734 28.6766 19.4734 24.575 23.575C23.4312 24.7187 22.6062 26.064 22.1 27.5031C21.8234 28.2859 22.2359 29.139 23.0141 29.4156C23.7922 29.6921 24.65 29.2796 24.9266 28.5015V28.4968ZM21.8281 32.5609C21.5938 32.6312 21.3687 32.7578 21.1859 32.9453C20.9984 33.1328 20.8719 33.3578 20.8063 33.6015C20.7922 33.6578 20.7781 33.7187 20.7687 33.7796C20.7547 33.8593 20.75 33.939 20.75 34.0187V40C20.75 40.8296 21.4203 41.5 22.25 41.5C23.0797 41.5 23.75 40.8296 23.75 40V37.6046L24.575 38.4249C28.6766 42.5218 35.3234 42.5218 39.4203 38.4249C40.5641 37.2812 41.3938 35.9359 41.9 34.5015C42.1766 33.7187 41.7641 32.8656 40.9859 32.589C40.2078 32.3125 39.35 32.725 39.0734 33.5031C38.7125 34.525 38.1266 35.4859 37.3016 36.3062C34.3719 39.2359 29.6234 39.2359 26.6938 36.3062L26.6891 36.3015L25.8875 35.5H28.25C29.0797 35.5 29.75 34.8296 29.75 34C29.75 33.1703 29.0797 32.5 28.25 32.5H22.2688C22.1938 32.5 22.1187 32.5046 22.0437 32.514C21.9687 32.5234 21.8984 32.5375 21.8281 32.5609Z" fill="white"/>
</svg>
