<svg width="48" height="48" viewBox="0 0 48 48" fill="none" xmlns="http://www.w3.org/2000/svg">
<path d="M24 0C37.2548 0 48 10.7452 48 24C48 37.2548 37.2548 48 24 48C10.7452 48 0 37.2548 0 24C0 10.7452 10.7452 0 24 0Z" fill="#FEE2E2"/>
<path d="M24 0C37.2548 0 48 10.7452 48 24C48 37.2548 37.2548 48 24 48C10.7452 48 0 37.2548 0 24C0 10.7452 10.7452 0 24 0Z" stroke="#E5E7EB"/>
<path d="M31 36H17V12H31V36Z" stroke="#E5E7EB"/>
<g clip-path="url(#clip0_1_966)">
<path d="M24 24C22.9391 24 21.9217 23.5786 21.1716 22.8284C20.4214 22.0783 20 21.0609 20 20C20 18.9391 20.4214 17.9217 21.1716 17.1716C21.9217 16.4214 22.9391 16 24 16C25.0609 16 26.0783 16.4214 26.8284 17.1716C27.5786 17.9217 28 18.9391 28 20C28 21.0609 27.5786 22.0783 26.8284 22.8284C26.0783 23.5786 25.0609 24 24 24ZM23.5344 27.225L22.9531 26.2563C22.7531 25.9219 22.9938 25.5 23.3812 25.5H24H24.6156C25.0031 25.5 25.2437 25.925 25.0437 26.2563L24.4625 27.225L25.5063 31.0969L26.6313 26.5063C26.6938 26.2531 26.9375 26.0875 27.1906 26.1531C29.3813 26.7031 31 28.6844 31 31.0406C31 31.5719 30.5687 32 30.0406 32H25.9219C25.8562 32 25.7969 31.9875 25.7406 31.9656L25.75 32H22.25L22.2594 31.9656C22.2031 31.9875 22.1406 32 22.0781 32H17.9594C17.4313 32 17 31.5687 17 31.0406C17 28.6812 18.6219 26.7 20.8094 26.1531C21.0625 26.0906 21.3063 26.2563 21.3688 26.5063L22.4938 31.0969L23.5375 27.225H23.5344Z" fill="#DC2626"/>
</g>
<defs>
<clipPath id="clip0_1_966">
<path d="M17 16H31V32H17V16Z" fill="white"/>
</clipPath>
</defs>
</svg>
