<svg width="592" height="40" viewBox="0 0 592 40" fill="none" xmlns="http://www.w3.org/2000/svg">
<path d="M592 40H0V0H592V40Z" stroke="#E5E7EB"/>
<path d="M32 0C36.4183 0 40 3.58172 40 8V32C40 36.4183 36.4183 40 32 40H8C3.58172 40 0 36.4183 0 32V8C0 3.58172 3.58172 0 8 0H32Z" fill="#1F2937"/>
<path d="M32 0C36.4183 0 40 3.58172 40 8V32C40 36.4183 36.4183 40 32 40H8C3.58172 40 0 36.4183 0 32V8C0 3.58172 3.58172 0 8 0H32Z" stroke="#E5E7EB"/>
<path d="M28 32H12V8H28V32Z" stroke="#E5E7EB"/>
<path d="M28 28H12V12H28V28Z" stroke="#E5E7EB"/>
<path d="M26.3553 16.7415C26.3655 16.8836 26.3655 17.0258 26.3655 17.1679C26.3655 21.5029 23.066 26.4978 17.0355 26.4978C15.1777 26.4978 13.4518 25.9597 12 25.0258C12.264 25.0562 12.5178 25.0664 12.7919 25.0664C14.3248 25.0664 15.736 24.5486 16.8629 23.6654C15.4213 23.6349 14.2132 22.6907 13.7969 21.3912C14 21.4217 14.203 21.442 14.4162 21.442C14.7107 21.442 15.0051 21.4014 15.2792 21.3303C13.7767 21.0257 12.6497 19.706 12.6497 18.1121V18.0715C13.0863 18.3151 13.5939 18.4674 14.1319 18.4877C13.2487 17.8988 12.67 16.8938 12.67 15.7567C12.67 15.1476 12.8324 14.5892 13.1167 14.1019C14.7309 16.0917 17.1573 17.3912 19.8781 17.5334C19.8274 17.2897 19.7969 17.0359 19.7969 16.7821C19.7969 14.975 21.2588 13.5029 23.0761 13.5029C24.0203 13.5029 24.873 13.8989 25.472 14.5385C26.2131 14.3963 26.9238 14.1222 27.5533 13.7466C27.3096 14.508 26.7918 15.1476 26.1116 15.5537C26.7715 15.4826 27.4111 15.2999 27.9999 15.0461C27.5533 15.6958 26.9949 16.2745 26.3553 16.7415Z" fill="white"/>
<path d="M88 0C92.4183 0 96 3.58172 96 8V32C96 36.4183 92.4183 40 88 40H64C59.5817 40 56 36.4183 56 32V8C56 3.58172 59.5817 0 64 0H88Z" fill="#1F2937"/>
<path d="M88 0C92.4183 0 96 3.58172 96 8V32C96 36.4183 92.4183 40 88 40H64C59.5817 40 56 36.4183 56 32V8C56 3.58172 59.5817 0 64 0H88Z" stroke="#E5E7EB"/>
<path d="M83 32H69V8H83V32Z" stroke="#E5E7EB"/>
<path d="M83 28H69V12H83V28Z" stroke="#E5E7EB"/>
<path d="M82 13H69.9969C69.4469 13 69 13.4531 69 14.0094V25.9906C69 26.5469 69.4469 27 69.9969 27H82C82.55 27 83 26.5469 83 25.9906V14.0094C83 13.4531 82.55 13 82 13ZM73.2312 25H71.1562V18.3187H73.2344V25H73.2312ZM72.1937 17.4062C71.5281 17.4062 70.9906 16.8656 70.9906 16.2031C70.9906 15.5406 71.5281 15 72.1937 15C72.8562 15 73.3969 15.5406 73.3969 16.2031C73.3969 16.8688 72.8594 17.4062 72.1937 17.4062ZM81.0094 25H78.9344V21.75C78.9344 20.975 78.9187 19.9781 77.8562 19.9781C76.775 19.9781 76.6094 20.8219 76.6094 21.6938V25H74.5344V18.3187H76.525V19.2312H76.5531C76.8312 18.7062 77.5094 18.1531 78.5188 18.1531C80.6187 18.1531 81.0094 19.5375 81.0094 21.3375V25Z" fill="white"/>
<path d="M144 0C148.418 0 152 3.58172 152 8V32C152 36.4183 148.418 40 144 40H120C115.582 40 112 36.4183 112 32V8C112 3.58172 115.582 0 120 0H144Z" fill="#1F2937"/>
<path d="M144 0C148.418 0 152 3.58172 152 8V32C152 36.4183 148.418 40 144 40H120C115.582 40 112 36.4183 112 32V8C112 3.58172 115.582 0 120 0H144Z" stroke="#E5E7EB"/>
<path d="M141 32H123V8H141V32Z" stroke="#E5E7EB"/>
<path d="M141 28H123V12H141V28Z" stroke="#E5E7EB"/>
<path d="M140.177 15.8776C139.98 15.1385 139.402 14.5565 138.668 14.3589C137.337 14 132 14 132 14C132 14 126.663 14 125.332 14.3589C124.598 14.5565 124.02 15.1385 123.823 15.8776C123.467 17.2172 123.467 20.0121 123.467 20.0121C123.467 20.0121 123.467 22.8071 123.823 24.1467C124.02 24.8857 124.598 25.4435 125.332 25.6411C126.663 26 132 26 132 26C132 26 137.337 26 138.668 25.6411C139.402 25.4435 139.98 24.8857 140.177 24.1467C140.533 22.8071 140.533 20.0121 140.533 20.0121C140.533 20.0121 140.533 17.2172 140.177 15.8776ZM130.255 22.5497V17.4745L134.715 20.0122L130.255 22.5497Z" fill="white"/>
<path d="M200 0C204.418 0 208 3.58172 208 8V32C208 36.4183 204.418 40 200 40H176C171.582 40 168 36.4183 168 32V8C168 3.58172 171.582 0 176 0H200Z" fill="#16A34A"/>
<path d="M200 0C204.418 0 208 3.58172 208 8V32C208 36.4183 204.418 40 200 40H176C171.582 40 168 36.4183 168 32V8C168 3.58172 171.582 0 176 0H200Z" stroke="#E5E7EB"/>
<path d="M195 32H181V8H195V32Z" stroke="#E5E7EB"/>
<path d="M195 28H181V12H195V28Z" stroke="#E5E7EB"/>
<path d="M192.903 15.0344C191.594 13.7219 189.85 13 187.997 13C184.172 13 181.059 16.1125 181.059 19.9375C181.059 21.1594 181.378 22.3531 181.984 23.4062L181 27L184.678 26.0344C185.691 26.5875 186.831 26.8781 187.994 26.8781H187.997C191.819 26.8781 195 23.7656 195 19.9406C195 18.0875 194.212 16.3469 192.903 15.0344ZM187.997 25.7094C186.959 25.7094 185.944 25.4312 185.059 24.9062L184.85 24.7812L182.669 25.3531L183.25 23.225L183.112 23.0063C182.534 22.0875 182.231 21.0281 182.231 19.9375C182.231 16.7594 184.819 14.1719 188 14.1719C189.541 14.1719 190.988 14.7719 192.075 15.8625C193.162 16.9531 193.831 18.4 193.828 19.9406C193.828 23.1219 191.175 25.7094 187.997 25.7094ZM191.159 21.3906C190.988 21.3031 190.134 20.8844 189.975 20.8281C189.816 20.7688 189.7 20.7406 189.584 20.9156C189.469 21.0906 189.137 21.4781 189.034 21.5969C188.934 21.7125 188.831 21.7281 188.659 21.6406C187.641 21.1313 186.972 20.7312 186.3 19.5781C186.122 19.2719 186.478 19.2937 186.809 18.6312C186.866 18.5156 186.837 18.4156 186.794 18.3281C186.75 18.2406 186.403 17.3875 186.259 17.0406C186.119 16.7031 185.975 16.75 185.869 16.7438C185.769 16.7375 185.653 16.7375 185.537 16.7375C185.422 16.7375 185.234 16.7812 185.075 16.9531C184.916 17.1281 184.469 17.5469 184.469 18.4C184.469 19.2531 185.091 20.0781 185.175 20.1938C185.263 20.3094 186.397 22.0594 188.137 22.8125C189.238 23.2875 189.669 23.3281 190.219 23.2469C190.553 23.1969 191.244 22.8281 191.387 22.4219C191.531 22.0156 191.531 21.6687 191.488 21.5969C191.447 21.5188 191.331 21.475 191.159 21.3906Z" fill="white"/>
</svg>
