<svg width="40" height="40" viewBox="0 0 40 40" fill="none" xmlns="http://www.w3.org/2000/svg">
<path d="M20 0C31.0457 0 40 8.95431 40 20C40 31.0457 31.0457 40 20 40C8.95431 40 0 31.0457 0 20C0 8.95431 8.95431 0 20 0Z" fill="#FEE2E2"/>
<path d="M20 0C31.0457 0 40 8.95431 40 20C40 31.0457 31.0457 40 20 40C8.95431 40 0 31.0457 0 20C0 8.95431 8.95431 0 20 0Z" stroke="#E5E7EB"/>
<path d="M28 32H12V8H28V32Z" stroke="#E5E7EB"/>
<g clip-path="url(#clip0_1_1472)">
<path d="M20 13C20.4438 13 20.8531 13.2344 21.0781 13.6187L27.8281 25.1187C28.0563 25.5062 28.0563 25.9844 27.8344 26.3719C27.6125 26.7594 27.1969 27 26.75 27H13.25C12.8031 27 12.3875 26.7594 12.1656 26.3719C11.9438 25.9844 11.9469 25.5031 12.1719 25.1187L18.9219 13.6187C19.1469 13.2344 19.5563 13 20 13ZM20 17C19.5844 17 19.25 17.3344 19.25 17.75V21.25C19.25 21.6656 19.5844 22 20 22C20.4156 22 20.75 21.6656 20.75 21.25V17.75C20.75 17.3344 20.4156 17 20 17ZM21 24C21 23.7348 20.8946 23.4804 20.7071 23.2929C20.5196 23.1054 20.2652 23 20 23C19.7348 23 19.4804 23.1054 19.2929 23.2929C19.1054 23.4804 19 23.7348 19 24C19 24.2652 19.1054 24.5196 19.2929 24.7071C19.4804 24.8946 19.7348 25 20 25C20.2652 25 20.5196 24.8946 20.7071 24.7071C20.8946 24.5196 21 24.2652 21 24Z" fill="#DC2626"/>
</g>
<defs>
<clipPath id="clip0_1_1472">
<path d="M12 12H28V28H12V12Z" fill="white"/>
</clipPath>
</defs>
</svg>
