<svg width="64" height="64" viewBox="0 0 64 64" fill="none" xmlns="http://www.w3.org/2000/svg">
<path d="M48 0C56.8366 0 64 7.16344 64 16V48C64 56.8366 56.8366 64 48 64H16C7.16344 64 0 56.8366 0 48V16C0 7.16344 7.16344 0 16 0H48Z" fill="#14B8A6"/>
<path d="M48 0C56.8366 0 64 7.16344 64 16V48C64 56.8366 56.8366 64 48 64H16C7.16344 64 0 56.8366 0 48V16C0 7.16344 7.16344 0 16 0H48Z" stroke="#E5E7EB"/>
<path d="M41 48H23V16H41V48Z" stroke="#E5E7EB"/>
<g clip-path="url(#clip0_1_165)">
<path d="M26 19C24.3453 19 23 20.3453 23 22V40C23 41.6547 24.3453 43 26 43H38C39.6547 43 41 41.6547 41 40V26.5H35C34.1703 26.5 33.5 25.8297 33.5 25V19H26ZM35 19V25H41L35 19ZM26.75 22H29.75C30.1625 22 30.5 22.3375 30.5 22.75C30.5 23.1625 30.1625 23.5 29.75 23.5H26.75C26.3375 23.5 26 23.1625 26 22.75C26 22.3375 26.3375 22 26.75 22ZM26.75 25H29.75C30.1625 25 30.5 25.3375 30.5 25.75C30.5 26.1625 30.1625 26.5 29.75 26.5H26.75C26.3375 26.5 26 26.1625 26 25.75C26 25.3375 26.3375 25 26.75 25ZM27.5 29.5H36.5C37.3297 29.5 38 30.1703 38 31V34C38 34.8297 37.3297 35.5 36.5 35.5H27.5C26.6703 35.5 26 34.8297 26 34V31C26 30.1703 26.6703 29.5 27.5 29.5ZM27.5 31V34H36.5V31H27.5ZM34.25 38.5H37.25C37.6625 38.5 38 38.8375 38 39.25C38 39.6625 37.6625 40 37.25 40H34.25C33.8375 40 33.5 39.6625 33.5 39.25C33.5 38.8375 33.8375 38.5 34.25 38.5Z" fill="white"/>
</g>
<defs>
<clipPath id="clip0_1_165">
<path d="M23 19H41V43H23V19Z" fill="white"/>
</clipPath>
</defs>
</svg>
