<svg width="64" height="64" viewBox="0 0 64 64" fill="none" xmlns="http://www.w3.org/2000/svg">
<path d="M48 0C56.8366 0 64 7.16344 64 16V48C64 56.8366 56.8366 64 48 64H16C7.16344 64 0 56.8366 0 48V16C0 7.16344 7.16344 0 16 0H48Z" fill="#F97316"/>
<path d="M48 0C56.8366 0 64 7.16344 64 16V48C64 56.8366 56.8366 64 48 64H16C7.16344 64 0 56.8366 0 48V16C0 7.16344 7.16344 0 16 0H48Z" stroke="#E5E7EB"/>
<path d="M44 48H20V16H44V48Z" stroke="#E5E7EB"/>
<g clip-path="url(#clip0_1_157)">
<path d="M27.7297 20.1531C27.3687 19.2812 26.4172 18.8171 25.5078 19.0656L21.3828 20.1906C20.5672 20.4156 20 21.1562 20 22C20 33.5968 29.4031 43 41 43C41.8438 43 42.5844 42.4328 42.8094 41.6171L43.9344 37.4921C44.1828 36.5828 43.7188 35.6312 42.8469 35.2703L38.3469 33.3953C37.5828 33.0765 36.6969 33.2968 36.1766 33.939L34.2828 36.25C30.9828 34.689 28.3109 32.0171 26.75 28.7171L29.0609 26.8281C29.7031 26.3031 29.9234 25.4218 29.6047 24.6578L27.7297 20.1578V20.1531Z" fill="white"/>
</g>
<defs>
<clipPath id="clip0_1_157">
<path d="M20 19H44V43H20V19Z" fill="white"/>
</clipPath>
</defs>
</svg>
