<svg width="72" height="82" viewBox="0 0 72 82" fill="none" xmlns="http://www.w3.org/2000/svg">
<g filter="url(#filter0_dd_1_130)">
<path d="M15 25.75C15 14.2901 24.2901 5 35.75 5C47.2099 5 56.5 14.2901 56.5 25.75V36.25C56.5 47.7099 47.2099 57 35.75 57C24.2901 57 15 47.7099 15 36.25V25.75Z" fill="#22C55E"/>
<path d="M44.5 43H27V19H44.5V43Z" stroke="#E5E7EB"/>
<g clip-path="url(#clip0_1_130)">
<path d="M44.1328 31.3828C44.6211 30.8945 44.6211 30.1016 44.1328 29.6133L37.8828 23.3633C37.3945 22.875 36.6016 22.875 36.1133 23.3633C35.625 23.8516 35.625 24.6445 36.1133 25.1328L40.2344 29.25H28.25C27.5586 29.25 27 29.8086 27 30.5C27 31.1914 27.5586 31.75 28.25 31.75H40.2305L36.1172 35.8672C35.6289 36.3555 35.6289 37.1484 36.1172 37.6367C36.6055 38.125 37.3984 38.125 37.8867 37.6367L44.1367 31.3867L44.1328 31.3828Z" fill="white"/>
</g>
</g>
<defs>
<filter id="filter0_dd_1_130" x="0" y="0" width="71.5" height="82" filterUnits="userSpaceOnUse" color-interpolation-filters="sRGB">
<feFlood flood-opacity="0" result="BackgroundImageFix"/>
<feColorMatrix in="SourceAlpha" type="matrix" values="0 0 0 0 0 0 0 0 0 0 0 0 0 0 0 0 0 0 127 0" result="hardAlpha"/>
<feOffset dy="10"/>
<feGaussianBlur stdDeviation="7.5"/>
<feColorMatrix type="matrix" values="0 0 0 0 0 0 0 0 0 0 0 0 0 0 0 0 0 0 0.1 0"/>
<feBlend mode="normal" in2="BackgroundImageFix" result="effect1_dropShadow_1_130"/>
<feColorMatrix in="SourceAlpha" type="matrix" values="0 0 0 0 0 0 0 0 0 0 0 0 0 0 0 0 0 0 127 0" result="hardAlpha"/>
<feOffset dy="4"/>
<feGaussianBlur stdDeviation="3"/>
<feColorMatrix type="matrix" values="0 0 0 0 0 0 0 0 0 0 0 0 0 0 0 0 0 0 0.1 0"/>
<feBlend mode="normal" in2="effect1_dropShadow_1_130" result="effect2_dropShadow_1_130"/>
<feBlend mode="normal" in="SourceGraphic" in2="effect2_dropShadow_1_130" result="shape"/>
</filter>
<clipPath id="clip0_1_130">
<path d="M27 20.5H44.5V40.5H27V20.5Z" fill="white"/>
</clipPath>
</defs>
</svg>
