<svg width="14" height="14" viewBox="0 0 14 14" fill="none" xmlns="http://www.w3.org/2000/svg">
<g clip-path="url(#clip0_1_271)">
<g clip-path="url(#clip1_1_271)">
<path d="M1.30156 8.21384L6.24258 12.8267C6.44766 13.0181 6.71836 13.1248 7 13.1248C7.28164 13.1248 7.55234 13.0181 7.75742 12.8267L12.6984 8.21384C13.5297 7.44001 14 6.35447 14 5.2197V5.06111C14 3.14978 12.6191 1.52009 10.7352 1.20564C9.48828 0.997827 8.21953 1.40525 7.32812 2.29666L7 2.62478L6.67188 2.29666C5.78047 1.40525 4.51172 0.997827 3.26484 1.20564C1.38086 1.52009 0 3.14978 0 5.06111V5.2197C0 6.35447 0.470312 7.44001 1.30156 8.21384Z" fill="#EF4444"/>
</g>
</g>
<defs>
<clipPath id="clip0_1_271">
<rect width="14" height="14" fill="white"/>
</clipPath>
<clipPath id="clip1_1_271">
<path d="M0 0H14V14H0V0Z" fill="white"/>
</clipPath>
</defs>
</svg>
