<svg width="32" height="32" viewBox="0 0 32 32" fill="none" xmlns="http://www.w3.org/2000/svg">
<path fill-rule="evenodd" clip-rule="evenodd" d="M8.36798 11.5356C8.59719 11.3151 8.90458 11.1946 9.2226 11.2006C9.54062 11.2066 9.84325 11.3386 10.064 11.5676L16 17.8684L21.936 11.5676C22.0439 11.4486 22.1746 11.3526 22.3203 11.285C22.466 11.2175 22.6238 11.1799 22.7843 11.1745C22.9448 11.1691 23.1047 11.1959 23.2547 11.2535C23.4046 11.311 23.5415 11.398 23.6572 11.5094C23.7728 11.6208 23.865 11.7543 23.9281 11.902C23.9913 12.0496 24.0242 12.2085 24.0248 12.3691C24.0254 12.5297 23.9938 12.6888 23.9318 12.8369C23.8699 12.9851 23.7788 13.1193 23.664 13.2316L16.864 20.4316C16.752 20.5477 16.6178 20.6401 16.4694 20.7032C16.3209 20.7663 16.1613 20.7988 16 20.7988C15.8387 20.7988 15.679 20.7663 15.5306 20.7032C15.3821 20.6401 15.2479 20.5477 15.136 20.4316L8.33598 13.2316C8.11545 13.0024 7.99495 12.695 8.00095 12.377C8.00695 12.059 8.13896 11.7563 8.36798 11.5356Z" fill="black"/>
</svg>
