<svg width="16" height="24" viewBox="0 0 16 24" fill="none" xmlns="http://www.w3.org/2000/svg">
<path d="M16 24H0V0H16V24Z" stroke="#E5E7EB"/>
<g clip-path="url(#clip0_1_1356)">
<path d="M8 4C10.1217 4 12.1566 4.84285 13.6569 6.34315C15.1571 7.84344 16 9.87827 16 12C16 14.1217 15.1571 16.1566 13.6569 17.6569C12.1566 19.1571 10.1217 20 8 20C5.87827 20 3.84344 19.1571 2.34315 17.6569C0.842855 16.1566 0 14.1217 0 12C0 9.87827 0.842855 7.84344 2.34315 6.34315C3.84344 4.84285 5.87827 4 8 4ZM7.25 7.75V12C7.25 12.25 7.375 12.4844 7.58437 12.625L10.5844 14.625C10.9281 14.8562 11.3938 14.7625 11.625 14.4156C11.8562 14.0687 11.7625 13.6062 11.4156 13.375L8.75 11.6V7.75C8.75 7.33437 8.41562 7 8 7C7.58437 7 7.25 7.33437 7.25 7.75Z" fill="#F97316"/>
</g>
<defs>
<clipPath id="clip0_1_1356">
<path d="M0 4H16V20H0V4Z" fill="white"/>
</clipPath>
</defs>
</svg>
