<svg width="18" height="24" viewBox="0 0 18 24" fill="none" xmlns="http://www.w3.org/2000/svg">
<path d="M18 24H0V0H18V24Z" stroke="#E5E7EB"/>
<g clip-path="url(#clip0_1_1342)">
<path d="M0 4.75C0 4.33437 0.334375 4 0.75 4H2.17188C2.85938 4 3.46875 4.4 3.75312 5H16.5969C17.4187 5 18.0188 5.78125 17.8031 6.575L16.5219 11.3344C16.2563 12.3156 15.3656 13 14.35 13H5.33437L5.50313 13.8906C5.57188 14.2437 5.88125 14.5 6.24062 14.5H15.25C15.6656 14.5 16 14.8344 16 15.25C16 15.6656 15.6656 16 15.25 16H6.24062C5.15938 16 4.23125 15.2312 4.03125 14.1719L2.41875 5.70312C2.39688 5.58438 2.29375 5.5 2.17188 5.5H0.75C0.334375 5.5 0 5.16562 0 4.75ZM4 18.5C4 18.303 4.0388 18.108 4.11418 17.926C4.18956 17.744 4.30005 17.5786 4.43934 17.4393C4.57863 17.3001 4.74399 17.1896 4.92597 17.1142C5.10796 17.0388 5.30302 17 5.5 17C5.69698 17 5.89204 17.0388 6.07403 17.1142C6.25601 17.1896 6.42137 17.3001 6.56066 17.4393C6.69995 17.5786 6.81044 17.744 6.88582 17.926C6.9612 18.108 7 18.303 7 18.5C7 18.697 6.9612 18.892 6.88582 19.074C6.81044 19.256 6.69995 19.4214 6.56066 19.5607C6.42137 19.6999 6.25601 19.8104 6.07403 19.8858C5.89204 19.9612 5.69698 20 5.5 20C5.30302 20 5.10796 19.9612 4.92597 19.8858C4.74399 19.8104 4.57863 19.6999 4.43934 19.5607C4.30005 19.4214 4.18956 19.256 4.11418 19.074C4.0388 18.892 4 18.697 4 18.5ZM14.5 17C14.8978 17 15.2794 17.158 15.5607 17.4393C15.842 17.7206 16 18.1022 16 18.5C16 18.8978 15.842 19.2794 15.5607 19.5607C15.2794 19.842 14.8978 20 14.5 20C14.1022 20 13.7206 19.842 13.4393 19.5607C13.158 19.2794 13 18.8978 13 18.5C13 18.1022 13.158 17.7206 13.4393 17.4393C13.7206 17.158 14.1022 17 14.5 17Z" fill="#3B82F6"/>
</g>
<defs>
<clipPath id="clip0_1_1342">
<path d="M0 4H18V20H0V4Z" fill="white"/>
</clipPath>
</defs>
</svg>
