<svg width="16" height="24" viewBox="0 0 16 24" fill="none" xmlns="http://www.w3.org/2000/svg">
<path d="M16 24H0V0H16V24Z" stroke="#E5E7EB"/>
<g clip-path="url(#clip0_1_1363)">
<path d="M5.15312 4.76897C4.9125 4.18772 4.27812 3.87834 3.67188 4.04397L0.921875 4.79397C0.378125 4.94397 0 5.43772 0 6.00022C0 13.7315 6.26875 20.0002 14 20.0002C14.5625 20.0002 15.0563 19.6221 15.2063 19.0783L15.9563 16.3283C16.1219 15.7221 15.8125 15.0877 15.2312 14.8471L12.2312 13.5971C11.7219 13.3846 11.1313 13.5315 10.7844 13.9596L9.52188 15.5002C7.32188 14.4596 5.54063 12.6783 4.5 10.4783L6.04063 9.21897C6.46875 8.86897 6.61562 8.28147 6.40312 7.77209L5.15312 4.77209V4.76897Z" fill="#A855F7"/>
</g>
<defs>
<clipPath id="clip0_1_1363">
<path d="M0 4H16V20H0V4Z" fill="white"/>
</clipPath>
</defs>
</svg>
