<svg width="48" height="59" viewBox="0 0 48 59" fill="none" xmlns="http://www.w3.org/2000/svg">
<path d="M48 59H0V0H48V59Z" stroke="#E5E7EB"/>
<g clip-path="url(#clip0_1_1285)">
<path d="M46.6969 5.52511C47.6437 6.18136 48.1406 7.31574 47.9625 8.45011L41.9625 47.4501C41.8219 48.3595 41.2687 49.1564 40.4625 49.6064C39.6562 50.0564 38.6906 50.1126 37.8375 49.7564L26.625 45.097L20.2031 52.0439C19.3687 52.9532 18.0563 53.2532 16.9031 52.8032C15.75 52.3532 15 51.2376 15 50.0001V42.1626C15 41.7876 15.1406 41.4314 15.3938 41.1595L31.1062 24.0126C31.65 23.422 31.6312 22.5126 31.0687 21.9501C30.5062 21.3876 29.5969 21.3501 29.0062 21.8845L9.9375 38.8251L1.65937 34.6814C0.665625 34.1845 0.0281249 33.1907 -1.05123e-07 32.0845C-0.0281251 30.9782 0.553125 29.947 1.50937 29.3939L43.5094 5.39386C44.5125 4.82199 45.75 4.87824 46.6969 5.52511Z" fill="#9333EA"/>
</g>
<defs>
<clipPath id="clip0_1_1285">
<path d="M0 5H48V53H0V5Z" fill="white"/>
</clipPath>
</defs>
</svg>
