<svg width="14" height="24" viewBox="0 0 14 24" fill="none" xmlns="http://www.w3.org/2000/svg">
<path d="M14 24H0V0H14V24Z" stroke="#E5E7EB"/>
<g clip-path="url(#clip0_1_1349)">
<path d="M0 6C0 5.44687 0.446875 5 1 5H3.5C5.98438 5 8 7.01562 8 9.5C8 11.3375 6.9 12.9156 5.32188 13.6156L6.92812 17.6281C7.13438 18.1406 6.88437 18.7219 6.37187 18.9281C5.85938 19.1344 5.27813 18.8844 5.07188 18.3719L3.32188 14H2V18C2 18.5531 1.55313 19 1 19C0.446875 19 0 18.5531 0 18V13V6ZM2 12H3.5C4.88125 12 6 10.8812 6 9.5C6 8.11875 4.88125 7 3.5 7H2V12ZM10.0156 12.5125C9.9875 12.7 10.0156 12.7844 10.0281 12.8188C10.0406 12.8531 10.0719 12.9 10.1594 12.9719C10.3844 13.15 10.7437 13.2844 11.3438 13.4969L11.3844 13.5125C11.8844 13.6875 12.5938 13.9375 13.125 14.3906C13.4219 14.6438 13.6844 14.9719 13.8469 15.4C14.0063 15.8281 14.0375 16.2906 13.9656 16.775C13.8344 17.6531 13.325 18.3156 12.5969 18.6781C11.9062 19.0219 11.0938 19.0688 10.3094 18.9281H10.3031C10.0125 18.8719 9.6625 18.75 9.3875 18.6469C9.2 18.575 8.99375 18.4937 8.83438 18.4312C8.75625 18.4 8.69063 18.375 8.6375 18.3531C8.12187 18.1531 7.86875 17.5719 8.06875 17.0594C8.26875 16.5469 8.84688 16.2906 9.3625 16.4906C9.44375 16.5219 9.525 16.5531 9.60938 16.5875C9.75937 16.6469 9.91562 16.7094 10.0906 16.775C10.3656 16.8781 10.5688 16.9437 10.675 16.9625C11.1656 17.05 11.5094 16.9875 11.7031 16.8906C11.8594 16.8125 11.9531 16.7031 11.9875 16.4844C12.0188 16.2688 11.9938 16.1562 11.9719 16.1C11.9531 16.0469 11.9156 15.9875 11.8313 15.9156C11.6156 15.7344 11.2625 15.5906 10.6781 15.3844L10.5844 15.35C10.1 15.1813 9.42812 14.9437 8.91875 14.5406C8.62187 14.3062 8.34688 13.9906 8.17813 13.5719C8.00625 13.1531 7.97187 12.6969 8.04062 12.2219C8.30312 10.4375 10.1344 9.78437 11.6938 10.0687C11.9094 10.1094 12.5469 10.25 12.8 10.3313C13.3281 10.4938 13.6219 11.0563 13.4594 11.5844C13.2969 12.1125 12.7344 12.4062 12.2063 12.2437C12.0594 12.2 11.5094 12.0719 11.3344 12.0406C10.8781 11.9562 10.5281 12.0281 10.3156 12.1406C10.1188 12.2438 10.0375 12.3781 10.0188 12.5156L10.0156 12.5125Z" fill="#22C55E"/>
</g>
<defs>
<clipPath id="clip0_1_1349">
<path d="M0 4H14V20H0V4Z" fill="white"/>
</clipPath>
</defs>
</svg>
