<svg width="48" height="59" viewBox="0 0 48 59" fill="none" xmlns="http://www.w3.org/2000/svg">
<path d="M48 59H0V0H48V59Z" stroke="#E5E7EB"/>
<g clip-path="url(#clip0_1_1299)">
<path d="M26.25 4.99992C38.2594 4.99992 48 14.7405 48 26.7499C48 27.9968 46.9969 28.9999 45.75 28.9999C44.5031 28.9999 43.5 27.9968 43.5 26.7499C43.5 17.2249 35.775 9.49992 26.25 9.49992C25.0031 9.49992 24 8.49679 24 7.24992C24 6.00304 25.0031 4.99992 26.25 4.99992ZM27 22.9999C27.7956 22.9999 28.5587 23.316 29.1213 23.8786C29.6839 24.4412 30 25.2043 30 25.9999C30 26.7956 29.6839 27.5586 29.1213 28.1212C28.5587 28.6838 27.7956 28.9999 27 28.9999C26.2044 28.9999 25.4413 28.6838 24.8787 28.1212C24.3161 27.5586 24 26.7956 24 25.9999C24 25.2043 24.3161 24.4412 24.8787 23.8786C25.4413 23.316 26.2044 22.9999 27 22.9999ZM24 16.2499C24 15.003 25.0031 13.9999 26.25 13.9999C33.2906 13.9999 39 19.7093 39 26.7499C39 27.9968 37.9969 28.9999 36.75 28.9999C35.5031 28.9999 34.5 27.9968 34.5 26.7499C34.5 22.1937 30.8062 18.4999 26.25 18.4999C25.0031 18.4999 24 17.4968 24 16.2499ZM11.0156 5.13117C12.8344 4.63429 14.7375 5.56242 15.4594 7.30617L19.2094 16.3062C19.8469 17.8343 19.4062 19.6062 18.1219 20.6468L13.5 24.4343C16.6219 31.0343 21.9656 36.378 28.5656 39.4999L32.3438 34.878C33.3937 33.5937 35.1562 33.153 36.6844 33.7905L45.6844 37.5405C47.4281 38.2624 48.3563 40.1655 47.8594 41.9843L45.6094 50.2343C45.1688 51.8655 43.6875 52.9999 42 52.9999C18.8063 52.9999 0 34.1937 0 10.9999C0 9.31242 1.13438 7.83117 2.76562 7.38117L11.0156 5.13117Z" fill="#EA580C"/>
</g>
<defs>
<clipPath id="clip0_1_1299">
<path d="M0 5H48V53H0V5Z" fill="white"/>
</clipPath>
</defs>
</svg>
