<svg width="16" height="20" viewBox="0 0 16 20" fill="none" xmlns="http://www.w3.org/2000/svg">
<path d="M15.75 20H0V0H15.75V20Z" stroke="#E5E7EB"/>
<path d="M15.75 16.75H0V2.75H15.75V16.75Z" stroke="#E5E7EB"/>
<path d="M1.75 3.625C1.26602 3.625 0.875 4.01602 0.875 4.5V11.0625V12.375V14.5625C0.875 15.2871 1.46289 15.875 2.1875 15.875H13.5625C14.2871 15.875 14.875 15.2871 14.875 14.5625V11.0625V6.91172C14.875 6.41406 14.3445 6.09961 13.907 6.33477L9.625 8.63984V6.91172C9.625 6.41406 9.09453 6.09961 8.65703 6.33477L4.375 8.63984V4.5C4.375 4.01602 3.98398 3.625 3.5 3.625H1.75Z" fill="#6B7280"/>
</svg>
