<svg width="42" height="59" viewBox="0 0 42 59" fill="none" xmlns="http://www.w3.org/2000/svg">
<path d="M42 59H0V0H42V59Z" stroke="#E5E7EB"/>
<g clip-path="url(#clip0_1_1257)">
<path d="M35.7094 14.1031C31.7812 10.1656 26.55 8 20.9906 8C9.51562 8 0.178125 17.3375 0.178125 28.8125C0.178125 32.4781 1.13438 36.0594 2.95312 39.2188L0 50L11.0344 47.1031C14.0719 48.7625 17.4937 49.6344 20.9813 49.6344H20.9906C32.4562 49.6344 42 40.2969 42 28.8219C42 23.2625 39.6375 18.0406 35.7094 14.1031ZM20.9906 46.1281C17.8781 46.1281 14.8312 45.2938 12.1781 43.7188L11.55 43.3438L5.00625 45.0594L6.75 38.675L6.3375 38.0188C4.60312 35.2625 3.69375 32.0844 3.69375 28.8125C3.69375 19.2781 11.4562 11.5156 21 11.5156C25.6219 11.5156 29.9625 13.3156 33.225 16.5875C36.4875 19.8594 38.4938 24.2 38.4844 28.8219C38.4844 38.3656 30.525 46.1281 20.9906 46.1281ZM30.4781 33.1719C29.9625 32.9094 27.4031 31.6531 26.925 31.4844C26.4469 31.3062 26.1 31.2219 25.7531 31.7469C25.4063 32.2719 24.4125 33.4344 24.1031 33.7906C23.8031 34.1375 23.4938 34.1844 22.9781 33.9219C19.9219 32.3937 17.9156 31.1938 15.9 27.7344C15.3656 26.8156 16.4344 26.8813 17.4281 24.8937C17.5969 24.5469 17.5125 24.2469 17.3812 23.9844C17.25 23.7219 16.2094 21.1625 15.7781 20.1219C15.3563 19.1094 14.925 19.25 14.6063 19.2313C14.3063 19.2125 13.9594 19.2125 13.6125 19.2125C13.2656 19.2125 12.7031 19.3438 12.225 19.8594C11.7469 20.3844 10.4062 21.6406 10.4062 24.2C10.4062 26.7594 12.2719 29.2344 12.525 29.5813C12.7875 29.9281 16.1906 35.1781 21.4125 37.4375C24.7125 38.8625 26.0063 38.9844 27.6562 38.7406C28.6594 38.5906 30.7312 37.4844 31.1625 36.2656C31.5938 35.0469 31.5938 34.0063 31.4625 33.7906C31.3406 33.5563 30.9938 33.425 30.4781 33.1719Z" fill="#16A34A"/>
</g>
<defs>
<clipPath id="clip0_1_1257">
<path d="M0 5H42V53H0V5Z" fill="white"/>
</clipPath>
</defs>
</svg>
