<svg width="14" height="24" viewBox="0 0 14 24" fill="none" xmlns="http://www.w3.org/2000/svg">
<path d="M14 24H0V0H14V24Z" stroke="#E5E7EB"/>
<g clip-path="url(#clip0_1_1102)">
<path d="M7.00001 4C6.44689 4 6.00001 4.44687 6.00001 5V5.6C3.71876 6.0625 2.00001 8.08125 2.00001 10.5V11.0875C2.00001 12.5562 1.45939 13.975 0.484387 15.075L0.253137 15.3344C-0.00936282 15.6281 -0.0718628 16.05 0.0875122 16.4094C0.246887 16.7688 0.606262 17 1.00001 17H13C13.3938 17 13.75 16.7688 13.9125 16.4094C14.075 16.05 14.0094 15.6281 13.7469 15.3344L13.5156 15.075C12.5406 13.975 12 12.5594 12 11.0875V10.5C12 8.08125 10.2813 6.0625 8.00001 5.6V5C8.00001 4.44687 7.55314 4 7.00001 4ZM8.41564 19.4156C8.79064 19.0406 9.00001 18.5312 9.00001 18H7.00001H5.00001C5.00001 18.5312 5.20939 19.0406 5.58439 19.4156C5.95939 19.7906 6.46876 20 7.00001 20C7.53126 20 8.04064 19.7906 8.41564 19.4156Z" fill="#9CA3AF"/>
</g>
<defs>
<clipPath id="clip0_1_1102">
<path d="M0 4H14V20H0V4Z" fill="white"/>
</clipPath>
</defs>
</svg>
