<svg width="36" height="59" viewBox="0 0 36 59" fill="none" xmlns="http://www.w3.org/2000/svg">
<path d="M36 59H0V0H36V59Z" stroke="#E5E7EB"/>
<g clip-path="url(#clip0_1_1271)">
<path d="M6 5C2.69063 5 0 7.69063 0 11V47C0 50.3094 2.69063 53 6 53H30C33.3094 53 36 50.3094 36 47V20H24C22.3406 20 21 18.6594 21 17V5H6ZM24 5V17H36L24 5ZM10.5 29H25.5C26.325 29 27 29.675 27 30.5C27 31.325 26.325 32 25.5 32H10.5C9.675 32 9 31.325 9 30.5C9 29.675 9.675 29 10.5 29ZM10.5 35H25.5C26.325 35 27 35.675 27 36.5C27 37.325 26.325 38 25.5 38H10.5C9.675 38 9 37.325 9 36.5C9 35.675 9.675 35 10.5 35ZM10.5 41H25.5C26.325 41 27 41.675 27 42.5C27 43.325 26.325 44 25.5 44H10.5C9.675 44 9 43.325 9 42.5C9 41.675 9.675 41 10.5 41Z" fill="#2563EB"/>
</g>
<defs>
<clipPath id="clip0_1_1271">
<path d="M0 5H36V53H0V5Z" fill="white"/>
</clipPath>
</defs>
</svg>
