<svg width="14" height="24" viewBox="0 0 14 24" fill="none" xmlns="http://www.w3.org/2000/svg">
<path d="M14 24H0V0H14V24Z" stroke="#E5E7EB"/>
<g clip-path="url(#clip0_1_510)">
<path d="M11.9031 7.03437C10.5938 5.72187 8.85 5 6.99687 5C3.17187 5 0.059375 8.1125 0.059375 11.9375C0.059375 13.1594 0.378125 14.3531 0.984375 15.4062L0 19L3.67812 18.0344C4.69063 18.5875 5.83125 18.8781 6.99375 18.8781H6.99687C10.8188 18.8781 14 15.7656 14 11.9406C14 10.0875 13.2125 8.34687 11.9031 7.03437ZM6.99687 17.7094C5.95937 17.7094 4.94375 17.4312 4.05937 16.9062L3.85 16.7812L1.66875 17.3531L2.25 15.225L2.1125 15.0063C1.53437 14.0875 1.23125 13.0281 1.23125 11.9375C1.23125 8.75938 3.81875 6.17188 7 6.17188C8.54062 6.17188 9.9875 6.77187 11.075 7.8625C12.1625 8.95312 12.8313 10.4 12.8281 11.9406C12.8281 15.1219 10.175 17.7094 6.99687 17.7094ZM10.1594 13.3906C9.9875 13.3031 9.13438 12.8844 8.975 12.8281C8.81563 12.7688 8.7 12.7406 8.58438 12.9156C8.46875 13.0906 8.1375 13.4781 8.03438 13.5969C7.93438 13.7125 7.83125 13.7281 7.65938 13.6406C6.64062 13.1313 5.97188 12.7312 5.3 11.5781C5.12188 11.2719 5.47812 11.2937 5.80937 10.6312C5.86562 10.5156 5.8375 10.4156 5.79375 10.3281C5.75 10.2406 5.40313 9.3875 5.25938 9.04063C5.11875 8.70312 4.975 8.75 4.86875 8.74375C4.76875 8.7375 4.65312 8.7375 4.5375 8.7375C4.42188 8.7375 4.23438 8.78125 4.075 8.95312C3.91562 9.12813 3.46875 9.54688 3.46875 10.4C3.46875 11.2531 4.09063 12.0781 4.175 12.1938C4.2625 12.3094 5.39687 14.0594 7.1375 14.8125C8.2375 15.2875 8.66875 15.3281 9.21875 15.2469C9.55313 15.1969 10.2437 14.8281 10.3875 14.4219C10.5312 14.0156 10.5312 13.6687 10.4875 13.5969C10.4469 13.5188 10.3313 13.475 10.1594 13.3906Z" fill="white"/>
</g>
<defs>
<clipPath id="clip0_1_510">
<path d="M0 4H14V20H0V4Z" fill="white"/>
</clipPath>
</defs>
</svg>
