<svg width="16" height="20" viewBox="0 0 16 20" fill="none" xmlns="http://www.w3.org/2000/svg">
<path d="M15.75 20H0V0H15.75V20Z" stroke="#E5E7EB"/>
<g clip-path="url(#clip0_1_388)">
<path d="M14.9734 5.58828L13.4066 3.1082C13.2672 2.88672 13.0184 2.75 12.7531 2.75H2.99688C2.73164 2.75 2.48281 2.88672 2.34336 3.1082L0.773829 5.58828C-0.0355463 6.86797 0.68086 8.64805 2.19297 8.85313C2.30234 8.8668 2.41445 8.875 2.52383 8.875C3.2375 8.875 3.87188 8.56328 4.30664 8.08203C4.74141 8.56328 5.37578 8.875 6.08945 8.875C6.80313 8.875 7.4375 8.56328 7.87227 8.08203C8.30703 8.56328 8.94141 8.875 9.65508 8.875C10.3715 8.875 11.0031 8.56328 11.4379 8.08203C11.8754 8.56328 12.507 8.875 13.2207 8.875C13.3328 8.875 13.4422 8.8668 13.5516 8.85313C15.0691 8.65078 15.7883 6.8707 14.9762 5.58828H14.9734ZM13.6637 9.71992H13.6609C13.516 9.73906 13.3684 9.75 13.218 9.75C12.8789 9.75 12.5535 9.69805 12.25 9.60508V13.25H3.5V9.60234C3.19375 9.69805 2.86563 9.75 2.52656 9.75C2.37617 9.75 2.22578 9.73906 2.08086 9.71992H2.07813C1.96602 9.70352 1.85664 9.68438 1.75 9.65703V13.25V15C1.75 15.9652 2.53477 16.75 3.5 16.75H12.25C13.2152 16.75 14 15.9652 14 15V13.25V9.65703C13.8906 9.68438 13.7813 9.70625 13.6637 9.71992Z" fill="#6B7280"/>
</g>
<defs>
<clipPath id="clip0_1_388">
<path d="M0 2.75H15.75V16.75H0V2.75Z" fill="white"/>
</clipPath>
</defs>
</svg>
