<svg width="48" height="59" viewBox="0 0 48 59" fill="none" xmlns="http://www.w3.org/2000/svg">
<path d="M48 59H0V0H48V59Z" stroke="#E5E7EB"/>
<path d="M48 53H0V5H48V53Z" stroke="#E5E7EB"/>
<path d="M3 8C4.65938 8 6 9.34062 6 11V42.5C6 43.325 6.675 44 7.5 44H45C46.6594 44 48 45.3406 48 47C48 48.6594 46.6594 50 45 50H7.5C3.35625 50 0 46.6437 0 42.5V11C0 9.34062 1.34062 8 3 8ZM12 17C12 15.3406 13.3406 14 15 14H33C34.6594 14 36 15.3406 36 17C36 18.6594 34.6594 20 33 20H15C13.3406 20 12 18.6594 12 17ZM15 23H27C28.6594 23 30 24.3406 30 26C30 27.6594 28.6594 29 27 29H15C13.3406 29 12 27.6594 12 26C12 24.3406 13.3406 23 15 23ZM15 32H39C40.6594 32 42 33.3406 42 35C42 36.6594 40.6594 38 39 38H15C13.3406 38 12 36.6594 12 35C12 33.3406 13.3406 32 15 32Z" fill="#4F46E5"/>
</svg>
