<svg width="18" height="20" viewBox="0 0 18 20" fill="none" xmlns="http://www.w3.org/2000/svg">
<path d="M17.5 20H0V0H17.5V20Z" stroke="#E5E7EB"/>
<g clip-path="url(#clip0_1_418)">
<path d="M1.3125 2.75C0.587891 2.75 0 3.33789 0 4.0625V12.8125C0 13.5371 0.587891 14.125 1.3125 14.125H1.75C1.75 15.5742 2.92578 16.75 4.375 16.75C5.82422 16.75 7 15.5742 7 14.125H10.5C10.5 15.5742 11.6758 16.75 13.125 16.75C14.5742 16.75 15.75 15.5742 15.75 14.125H16.625C17.109 14.125 17.5 13.734 17.5 13.25C17.5 12.766 17.109 12.375 16.625 12.375V10.625V9.75V9.23867C16.625 8.77383 16.4418 8.32812 16.1137 8L14 5.88633C13.6719 5.5582 13.2262 5.375 12.7613 5.375H11.375V4.0625C11.375 3.33789 10.7871 2.75 10.0625 2.75H1.3125ZM11.375 7.125H12.7613L14.875 9.23867V9.75H11.375V7.125ZM3.0625 14.125C3.0625 13.7769 3.20078 13.4431 3.44692 13.1969C3.69306 12.9508 4.0269 12.8125 4.375 12.8125C4.7231 12.8125 5.05694 12.9508 5.30308 13.1969C5.54922 13.4431 5.6875 13.7769 5.6875 14.125C5.6875 14.4731 5.54922 14.8069 5.30308 15.0531C5.05694 15.2992 4.7231 15.4375 4.375 15.4375C4.0269 15.4375 3.69306 15.2992 3.44692 15.0531C3.20078 14.8069 3.0625 14.4731 3.0625 14.125ZM13.125 12.8125C13.4731 12.8125 13.8069 12.9508 14.0531 13.1969C14.2992 13.4431 14.4375 13.7769 14.4375 14.125C14.4375 14.4731 14.2992 14.8069 14.0531 15.0531C13.8069 15.2992 13.4731 15.4375 13.125 15.4375C12.7769 15.4375 12.4431 15.2992 12.1969 15.0531C11.9508 14.8069 11.8125 14.4731 11.8125 14.125C11.8125 13.7769 11.9508 13.4431 12.1969 13.1969C12.4431 12.9508 12.7769 12.8125 13.125 12.8125Z" fill="#6B7280"/>
</g>
<defs>
<clipPath id="clip0_1_418">
<path d="M0 2.75H17.5V16.75H0V2.75Z" fill="white"/>
</clipPath>
</defs>
</svg>
