<svg width="14" height="24" viewBox="0 0 14 24" fill="none" xmlns="http://www.w3.org/2000/svg">
<path d="M14 24H0V0H14V24Z" stroke="#E5E7EB"/>
<g clip-path="url(#clip0_1_571)">
<path d="M4 4C4.55312 4 5 4.44687 5 5V6H9V5C9 4.44687 9.44687 4 10 4C10.5531 4 11 4.44687 11 5V6H12.5C13.3281 6 14 6.67188 14 7.5V9H0V7.5C0 6.67188 0.671875 6 1.5 6H3V5C3 4.44687 3.44688 4 4 4ZM0 10H14V18.5C14 19.3281 13.3281 20 12.5 20H1.5C0.671875 20 0 19.3281 0 18.5V10ZM2 12.5V13.5C2 13.775 2.225 14 2.5 14H3.5C3.775 14 4 13.775 4 13.5V12.5C4 12.225 3.775 12 3.5 12H2.5C2.225 12 2 12.225 2 12.5ZM6 12.5V13.5C6 13.775 6.225 14 6.5 14H7.5C7.775 14 8 13.775 8 13.5V12.5C8 12.225 7.775 12 7.5 12H6.5C6.225 12 6 12.225 6 12.5ZM10.5 12C10.225 12 10 12.225 10 12.5V13.5C10 13.775 10.225 14 10.5 14H11.5C11.775 14 12 13.775 12 13.5V12.5C12 12.225 11.775 12 11.5 12H10.5ZM2 16.5V17.5C2 17.775 2.225 18 2.5 18H3.5C3.775 18 4 17.775 4 17.5V16.5C4 16.225 3.775 16 3.5 16H2.5C2.225 16 2 16.225 2 16.5ZM6.5 16C6.225 16 6 16.225 6 16.5V17.5C6 17.775 6.225 18 6.5 18H7.5C7.775 18 8 17.775 8 17.5V16.5C8 16.225 7.775 16 7.5 16H6.5ZM10 16.5V17.5C10 17.775 10.225 18 10.5 18H11.5C11.775 18 12 17.775 12 17.5V16.5C12 16.225 11.775 16 11.5 16H10.5C10.225 16 10 16.225 10 16.5Z" fill="white"/>
</g>
<defs>
<clipPath id="clip0_1_571">
<path d="M0 4H14V20H0V4Z" fill="white"/>
</clipPath>
</defs>
</svg>
