<svg width="36" height="59" viewBox="0 0 36 59" fill="none" xmlns="http://www.w3.org/2000/svg">
<path d="M36 59H0V0H36V59Z" stroke="#E5E7EB"/>
<g clip-path="url(#clip0_1_1313)">
<path d="M1.3125 5.20614C2.10938 4.84052 3.04687 4.97177 3.7125 5.54364L7.5 8.78739L11.2875 5.54364C12.1313 4.82177 13.3781 4.82177 14.2125 5.54364L18 8.78739L21.7875 5.54364C22.6312 4.82177 23.8781 4.82177 24.7125 5.54364L28.5 8.78739L32.2875 5.54364C32.9531 4.97177 33.8906 4.84052 34.6875 5.20614C35.4844 5.57177 36 6.36864 36 7.24989V50.7499C36 51.6311 35.4844 52.428 34.6875 52.7936C33.8906 53.1593 32.9531 53.028 32.2875 52.4561L28.5 49.2124L24.7125 52.4561C23.8688 53.178 22.6219 53.178 21.7875 52.4561L18 49.2124L14.2125 52.4561C13.3688 53.178 12.1219 53.178 11.2875 52.4561L7.5 49.2124L3.7125 52.4561C3.04687 53.028 2.10938 53.1593 1.3125 52.7936C0.515625 52.428 0 51.6311 0 50.7499V7.24989C0 6.36864 0.515625 5.57177 1.3125 5.20614ZM9 18.4999C8.175 18.4999 7.5 19.1749 7.5 19.9999C7.5 20.8249 8.175 21.4999 9 21.4999H27C27.825 21.4999 28.5 20.8249 28.5 19.9999C28.5 19.1749 27.825 18.4999 27 18.4999H9ZM7.5 37.9999C7.5 38.8249 8.175 39.4999 9 39.4999H27C27.825 39.4999 28.5 38.8249 28.5 37.9999C28.5 37.1749 27.825 36.4999 27 36.4999H9C8.175 36.4999 7.5 37.1749 7.5 37.9999ZM9 27.4999C8.175 27.4999 7.5 28.1749 7.5 28.9999C7.5 29.8249 8.175 30.4999 9 30.4999H27C27.825 30.4999 28.5 29.8249 28.5 28.9999C28.5 28.1749 27.825 27.4999 27 27.4999H9Z" fill="#0D9488"/>
</g>
<defs>
<clipPath id="clip0_1_1313">
<path d="M0 5H36V53H0V5Z" fill="white"/>
</clipPath>
</defs>
</svg>
