<svg width="16" height="24" viewBox="0 0 16 24" fill="none" xmlns="http://www.w3.org/2000/svg">
<path d="M16 24H0V0H16V24Z" stroke="#E5E7EB"/>
<g clip-path="url(#clip0_1_569)">
<path d="M4.89062 17.9906L4.49687 18.9125C3.9125 18.6156 3.375 18.25 2.8875 17.8219L3.59687 17.1125C3.9875 17.4531 4.42188 17.75 4.89062 17.9906ZM1.26875 12.5H0.265625C0.309375 13.1625 0.434375 13.8031 0.63125 14.4094L1.5625 14.0375C1.40937 13.5469 1.30625 13.0312 1.26875 12.5ZM1.26875 11.5C1.3125 10.9125 1.43125 10.3438 1.61563 9.80937L0.69375 9.41563C0.459375 10.0719 0.3125 10.7719 0.265625 11.5H1.26875ZM2.00938 8.89062C2.25313 8.425 2.54688 7.99062 2.8875 7.59375L2.17812 6.88438C1.75 7.37188 1.38125 7.90938 1.0875 8.49375L2.00938 8.89062ZM12.4062 17.1125C11.9719 17.4875 11.4875 17.8094 10.9656 18.0625L11.3375 18.9937C11.9844 18.6844 12.5813 18.2875 13.1156 17.8188L12.4062 17.1125ZM3.59375 6.8875C4.02813 6.5125 4.5125 6.19062 5.03438 5.9375L4.6625 5.00625C4.01562 5.31562 3.41875 5.7125 2.8875 6.18125L3.59375 6.8875ZM13.9906 15.1094C13.7469 15.575 13.4531 16.0094 13.1125 16.4062L13.8219 17.1156C14.25 16.6281 14.6188 16.0875 14.9125 15.5063L13.9906 15.1094ZM14.7312 12.5C14.6875 13.0875 14.5687 13.6562 14.3844 14.1906L15.3062 14.5844C15.5406 13.925 15.6875 13.225 15.7312 12.4969H14.7312V12.5ZM10.0375 18.4375C9.54688 18.5938 9.03125 18.6937 8.5 18.7312V19.7344C9.1625 19.6906 9.80313 19.5656 10.4094 19.3687L10.0375 18.4375ZM7.5 18.7312C6.9125 18.6875 6.34375 18.5687 5.80937 18.3844L5.41563 19.3062C6.075 19.5406 6.775 19.6875 7.50313 19.7312V18.7312H7.5ZM14.4375 9.9625C14.5938 10.4531 14.6937 10.9688 14.7312 11.5H15.7344C15.6906 10.8375 15.5656 10.1969 15.3687 9.59062L14.4375 9.9625ZM2.8875 16.4062C2.5125 15.9719 2.19062 15.4875 1.9375 14.9656L1.00625 15.3375C1.31562 15.9844 1.7125 16.5813 2.18125 17.1156L2.8875 16.4062ZM8.5 5.26875C9.0875 5.3125 9.65312 5.43125 10.1906 5.61563L10.5844 4.69375C9.92813 4.45938 9.22812 4.3125 8.5 4.26562V5.26875ZM5.9625 5.5625C6.45312 5.40625 6.96875 5.30625 7.5 5.26875V4.26562C6.8375 4.30937 6.19687 4.43438 5.59062 4.63125L5.9625 5.5625ZM13.8219 6.88438L13.1125 7.59375C13.4875 8.02813 13.8094 8.5125 14.0656 9.03438L14.9969 8.6625C14.6875 8.01562 14.2906 7.41875 13.8219 6.88438ZM12.4062 6.8875L13.1156 6.17812C12.6281 5.75 12.0906 5.38125 11.5063 5.0875L11.1125 6.00938C11.575 6.25313 12.0125 6.54688 12.4062 6.8875Z" fill="#CA8A04"/>
<path d="M8 16.25C8.48325 16.25 8.875 15.8582 8.875 15.375C8.875 14.8918 8.48325 14.5 8 14.5C7.51675 14.5 7.125 14.8918 7.125 15.375C7.125 15.8582 7.51675 16.25 8 16.25Z" fill="#CA8A04"/>
<path d="M8.24063 13.75H7.74063C7.53438 13.75 7.36563 13.5813 7.36563 13.375C7.36563 11.1562 9.78438 11.3781 9.78438 10.0062C9.78438 9.38125 9.22813 8.75 7.99063 8.75C7.08126 8.75 6.60626 9.05 6.14063 9.64687C6.01876 9.80312 5.79376 9.83438 5.63438 9.72188L5.22501 9.43437C5.05001 9.3125 5.00938 9.06562 5.14376 8.89687C5.80626 8.04687 6.59376 7.5 7.99376 7.5C9.62813 7.5 11.0375 8.43125 11.0375 10.0062C11.0375 12.1187 8.61876 11.9906 8.61876 13.375C8.61563 13.5813 8.44688 13.75 8.24063 13.75Z" fill="#CA8A04"/>
</g>
<defs>
<clipPath id="clip0_1_569">
<path d="M0 4H16V20H0V4Z" fill="white"/>
</clipPath>
</defs>
</svg>
